<?xml version="1.0" encoding="utf-8"?>
<!-- Generator: Adobe Illustrator 19.2.0, SVG Export Plug-In . SVG Version: 6.00 Build 0)  -->
<svg version="1.1" id="Layer_1" xmlns="http://www.w3.org/2000/svg" xmlns:xlink="http://www.w3.org/1999/xlink" x="0px" y="0px"
	 width="60px" height="20px" viewBox="0 0 60 20" style="enable-background:new 0 0 60 20;" xml:space="preserve">
<style type="text/css">
	.st0{fill:#FFFFFF;}
	.st1{fill:#F9543E;}
	.st2{fill:#FDBD00;}
</style>
<rect x="599.3" y="15" class="st0" width="100" height="3"/>
<rect x="614.3" y="15" class="st1" width="70" height="3"/>
<path class="st2" d="M51.6,7.2c-0.6,0.1-1.3,0.2-2.1,0.2c-2.9,0-4.1,1.6-5.2,3c-1,1.4-1.8,2.2-3.3,2.2c-1.9,0-2.6-0.6-3.3-1.3
	c-0.7-0.7-1.5-1.5-3.5-1.5c-2.2,0-3.4,1-4.4,1.9c-0.8,0.7-1.3,1.1-2.1,1.1c-0.6,0-1.3-1.4-1.8-2.4c-1-1.8-2-3.9-4.4-3.9
	c-0.8,0-1.5,0.5-2.2,1.2c-0.4,0.4-1.2,1-1.5,1c-0.2,0-3.3,0-3.5,0c-0.3-1.4-1.6-2.5-3.1-2.5C9.4,6.1,8,7.6,8,9.3s1.4,3.2,3.2,3.2
	c1.6,0,3-1.2,3.2-2.8c0.2,0,3.3,0,3.5,0c1,0,1.8-0.7,2.6-1.4c0.3-0.3,0.9-0.8,1.1-0.8c1.4,0,2.2,1.7,3,3.3c0.8,1.6,1.6,3.1,3.1,3.1
	c1.4,0,2.3-0.8,3.1-1.5c0.9-0.8,1.8-1.5,3.3-1.5c1.2,0,1.7,0.4,2.3,1.1c0.8,0.8,1.8,1.7,4.4,1.7c2.5,0,3.6-1.5,4.6-2.8
	c1-1.3,1.9-2.5,4-2.5c0.8,0,1.5-0.1,2.1-0.1V7.2z"/>
</svg>
