<?xml version="1.0" encoding="utf-8"?>
<!-- Generator: Adobe Illustrator 19.2.0, SVG Export Plug-In . SVG Version: 6.00 Build 0)  -->
<svg version="1.1" id="Layer_1" xmlns="http://www.w3.org/2000/svg" xmlns:xlink="http://www.w3.org/1999/xlink" x="0px" y="0px"
	 viewBox="0 0 50 50" style="enable-background:new 0 0 50 50;" xml:space="preserve">
<style type="text/css">
	.st0{fill:#FFFFFF;}
</style>
<path class="st0" d="M25.2,0C11.3,0,0,11.3,0,25.2c0,13.9,11.3,25.1,25.2,25.1c13.9,0,25.2-11.2,25.2-25.1C50.4,11.3,39.1,0,25.2,0z
	 M18.9,34.6h-4.7V18.9h4.7V34.6z M16.5,17.3c-1.3,0-2.4-1.1-2.4-2.4c0-1.3,1.1-2.4,2.4-2.4s2.4,1.1,2.4,2.4
	C18.9,16.2,17.8,17.3,16.5,17.3z M37.7,34.6H33V26c0-1.8-0.5-3.6-2.6-3.6c-2.1,0-3.7,1.8-3.7,3.6v8.6H22V18.8h4.7V21
	c1.5-1.9,3.5-2.7,5.8-2.7s5.3,1.2,5.2,7.4V34.6z"/>
</svg>
