<?xml version="1.0" encoding="utf-8"?>
<!-- Generator: Adobe Illustrator 19.2.0, SVG Export Plug-In . SVG Version: 6.00 Build 0)  -->
<svg version="1.1" id="Layer_1" xmlns="http://www.w3.org/2000/svg" xmlns:xlink="http://www.w3.org/1999/xlink" x="0px" y="0px"
	 viewBox="0 0 220 73" enable-background="new 0 0 220 73" xml:space="preserve">
<g>
	<path fill="#FFFFFF" d="M4,42.3c0-2.2,0.4-4.3,1.3-6.3c0.8-2,2-3.7,3.5-5.2c1.4-1.5,3.2-2.7,5.1-3.6s4-1.3,6.1-1.3
		c1.4,0,2.8,0.2,3.9,0.6c1.2,0.3,2.1,0.8,3,1.2c0.8,0.5,1.5,1,2,1.4c0.5,0.5,0.8,0.9,1,1.2l0.3-3.6h6.7v30.5h-7v-2
		c0-0.2,0-0.5,0.1-0.7c0-0.2,0.1-0.3,0.1-0.5c-0.2,0.2-0.6,0.6-1,1c-0.5,0.5-1.1,0.9-1.9,1.3c-0.9,0.5-1.9,0.8-3,1.2S21.6,58,20,58
		c-2.3,0-4.5-0.4-6.5-1.3c-2-0.9-3.6-2-5.1-3.4s-2.5-3.1-3.3-5C4.4,46.4,4,44.4,4,42.3z M11,41.8c0,1.3,0.2,2.6,0.7,3.7
		c0.5,1.2,1.1,2.1,1.9,3c0.8,0.8,1.9,1.5,3,2c1.2,0.5,2.4,0.7,3.8,0.7s2.7-0.2,3.8-0.7c1.2-0.5,2.1-1.2,3-2c0.8-0.8,1.5-1.9,1.9-3
		c0.5-1.2,0.7-2.3,0.7-3.6s-0.2-2.5-0.7-3.6c-0.5-1.1-1.1-2.1-1.9-2.9c-0.8-0.8-1.9-1.4-3-1.9c-1.2-0.5-2.4-0.7-3.8-0.7
		s-2.7,0.2-3.8,0.7c-1.2,0.5-2.1,1.1-3,1.9c-0.8,0.8-1.5,1.8-1.9,3C11.2,39.4,11,40.6,11,41.8z"/>
	<path fill="#FFFFFF" d="M41.2,42c0-2.4,0.4-4.5,1.2-6.5c0.8-1.9,1.9-3.6,3.3-5c1.4-1.4,3-2.5,5-3.3c1.9-0.8,3.9-1.2,6.2-1.2
		c1.5,0,2.9,0.1,4,0.5c1.2,0.3,2.1,0.8,3,1.2c0.8,0.5,1.4,1,2,1.5c0.5,0.6,0.9,1,1.2,1.4V1.2h6.9v56.1h-6.9v-2c0-0.2,0-0.5,0.1-0.8
		c0.1-0.3,0.1-0.5,0.1-0.6c-0.4,0.4-1,0.9-1.6,1.4c-0.6,0.5-1.4,1-2.2,1.4c-0.8,0.4-1.9,0.8-2.9,1c-1.1,0.3-2.3,0.4-3.7,0.4
		c-2.4,0-4.6-0.4-6.5-1.2c-1.9-0.8-3.6-2-4.9-3.4c-1.3-1.4-2.3-3.2-3-5.1C41.5,46.3,41.2,44.2,41.2,42z M48.1,41.8
		c0,1.3,0.2,2.6,0.7,3.7c0.5,1.2,1.1,2.1,1.9,3c0.8,0.8,1.9,1.5,3,2c1.2,0.5,2.4,0.7,3.8,0.7s2.7-0.2,3.9-0.7c1.2-0.5,2.2-1.2,3-2
		s1.5-1.9,1.9-3c0.5-1.2,0.7-2.3,0.7-3.6s-0.2-2.5-0.7-3.6c-0.5-1.1-1.1-2.1-1.9-2.9c-0.8-0.8-1.9-1.4-3-1.9
		c-1.2-0.5-2.5-0.7-3.9-0.7s-2.7,0.2-3.8,0.7c-1.2,0.5-2.1,1.1-3,1.9c-0.8,0.8-1.5,1.8-1.9,3C48.3,39.4,48.1,40.6,48.1,41.8z"/>
	<path fill="#FFFFFF" d="M79.3,14.9c0-1.2,0.5-2.3,1.4-3.1s1.9-1.2,3-1.2c1,0,2,0.4,2.9,1.2c0.9,0.8,1.3,1.9,1.3,3.1
		c0,1.3-0.4,2.3-1.3,3.1c-0.9,0.8-1.9,1.2-2.9,1.2s-2.1-0.4-3-1.2C79.7,17.2,79.3,16.2,79.3,14.9z M87,57.2h-6.9V26.7H87V57.2z"/>
	<path fill="#FFFFFF" d="M91.4,41.9c0-2.2,0.4-4.3,1.2-6.2c0.8-1.9,2-3.6,3.5-5c1.5-1.4,3.2-2.5,5.2-3.4c2-0.8,4.1-1.2,6.3-1.2
		c2.3,0,4.4,0.4,6.4,1.2c1.9,0.8,3.6,2,5,3.4c1.4,1.4,2.5,3.1,3.3,5c0.8,1.9,1.2,4,1.2,6.2c0,2.2-0.4,4.3-1.2,6.3
		c-0.8,1.9-1.9,3.6-3.3,5.1c-1.4,1.4-3.2,2.6-5.1,3.4c-1.9,0.8-4.1,1.2-6.5,1.2c-2.3,0-4.3-0.4-6.3-1.2c-1.9-0.8-3.6-1.9-5.1-3.2
		c-1.4-1.4-2.6-3.1-3.5-5.1C91.8,46.5,91.4,44.3,91.4,41.9z M98.2,42c0,1.3,0.2,2.5,0.7,3.6c0.5,1.1,1.1,2.1,2,3
		c0.8,0.8,1.8,1.5,3,2c1.1,0.5,2.3,0.7,3.6,0.7s2.5-0.2,3.6-0.7c1.1-0.5,2.1-1.2,3-2c0.8-0.8,1.5-1.8,2-3c0.5-1.1,0.8-2.3,0.8-3.6
		s-0.3-2.5-0.8-3.6s-1.2-2.1-2-3c-0.8-0.8-1.8-1.5-3-2c-1.1-0.5-2.3-0.8-3.6-0.8s-2.5,0.3-3.6,0.8c-1.1,0.5-2.1,1.2-3,2
		c-0.8,0.8-1.5,1.8-2,3C98.4,39.5,98.2,40.7,98.2,42z"/>
	<path fill="#FFFFFF" d="M128,26.7h6.1c0.1,0.9,0.1,1.7,0.1,2.3c0.1,0.7,0.1,1.3,0.1,1.9c0.1,0.6,0.1,1.2,0.1,1.8
		c0.1,0.6,0.1,1.2,0.1,1.9c1.2-2.6,2.6-4.7,4.3-6.2c1.7-1.6,4.1-2.3,7.2-2.4c3,0,5.4,0.8,7.2,2.3s2.8,3.5,3.2,5.9
		c0.6-1.2,1.2-2.3,1.9-3.3c0.7-1,1.5-1.9,2.4-2.6c0.9-0.7,1.9-1.3,3-1.7c1.2-0.4,2.5-0.6,4-0.6c3.2,0,5.6,0.8,7.5,2.5
		c1.9,1.7,2.8,3.9,3,6.6v22.1h-6.9V38.3c-0.1-1.5-0.6-2.8-1.5-3.9c-0.9-1.1-2.4-1.7-4.5-1.8c-2.8,0-5,0.9-6.5,2.8
		c-1.6,1.9-2.3,4.2-2.3,7.1v14.7h-6.9V38.3c-0.1-1.5-0.6-2.8-1.5-3.9c-1-1.1-2.4-1.7-4.5-1.8c-2.8,0-5,0.9-6.5,2.8
		c-1.6,1.9-2.3,4.2-2.3,7v14.7H128V26.7z"/>
	<path fill="#FFFFFF" d="M182.7,42.3c0-2.2,0.4-4.3,1.3-6.3c0.8-2,2-3.7,3.5-5.2c1.4-1.5,3.2-2.7,5.1-3.6s4-1.3,6.1-1.3
		c1.4,0,2.8,0.2,3.9,0.6c1.2,0.3,2.1,0.8,3,1.2c0.8,0.5,1.5,1,2,1.4c0.5,0.5,0.8,0.9,1,1.2l0.3-3.6h6.7v30.5h-7v-2
		c0-0.2,0-0.5,0.1-0.7c0-0.2,0.1-0.3,0.1-0.5c-0.2,0.2-0.6,0.6-1,1c-0.5,0.5-1.1,0.9-1.9,1.3c-0.8,0.4-1.8,0.8-2.9,1.1
		c-1.1,0.3-2.4,0.5-3.9,0.5c-2.3,0-4.5-0.4-6.5-1.3c-1.9-0.8-3.6-2-5.1-3.4c-1.4-1.4-2.5-3.1-3.3-5
		C183.1,46.4,182.7,44.4,182.7,42.3z M189.6,41.8c0,1.3,0.2,2.6,0.7,3.7c0.5,1.2,1.1,2.1,1.9,3c0.8,0.8,1.9,1.5,3,2
		c1.2,0.5,2.4,0.7,3.8,0.7s2.7-0.2,3.8-0.7c1.2-0.5,2.1-1.2,3-2c0.8-0.8,1.5-1.9,1.9-3c0.5-1.2,0.7-2.3,0.7-3.6s-0.2-2.5-0.7-3.6
		c-0.5-1.1-1.1-2.1-1.9-2.9s-1.9-1.4-3-1.9c-1.2-0.5-2.4-0.7-3.8-0.7s-2.7,0.2-3.8,0.7c-1.2,0.5-2.1,1.1-3,1.9s-1.5,1.8-1.9,3
		C189.9,39.4,189.6,40.6,189.6,41.8z"/>
</g>
</svg>
