<svg id="Layer_1" data-name="Layer 1" xmlns="http://www.w3.org/2000/svg" viewBox="0 0 24 24">
  <title>menu-</title>
  <path d="M19.79,17.88a2.83,2.83,0,0,0-2.09-.75,2.54,2.54,0,0,0-.81.15l-4-3.7,2.6-3.08,4.14,3.65L23.24,10,12.89,0.88,9.24,5l4,3.55L10.57,11.5,6.89,8.13a2.43,2.43,0,0,0,.06-0.81A2.75,2.75,0,0,0,6,5.3a2.83,2.83,0,0,0-2.09-.75,2.41,2.41,0,0,0-.81.15L5.46,6.82,3.39,9.09,1.05,7A2.49,2.49,0,0,0,1,7.78a2.71,2.71,0,0,0,.93,2A2.83,2.83,0,0,0,4,10.52a2.19,2.19,0,0,0,.87-0.19l3.57,3.28L2.54,19.74a1.75,1.75,0,0,0-.62,1.37,1.8,1.8,0,0,0,1.81,1.81,1.87,1.87,0,0,0,1.5-.78l5.7-6.28,3.37,3.08,0.56,0.54a4,4,0,0,0-.09.87,2.88,2.88,0,0,0,3,2.78A2.54,2.54,0,0,0,18.59,23l-2.34-2.12,2.09-2.28,2.31,2.13a2.49,2.49,0,0,0,.06-0.81A2.64,2.64,0,0,0,19.79,17.88Z" fill="#fff"/>
</svg>
